# xmcd
#
# Track frame offsets: 
#        150
#        17469
#        42177
#        59969
#        80387
#        113998
#        136250
#        152764
#        168601
#        189454
#        203259
#
# Disc length: 2985 seconds
#
# Revision: 0
# Processed by: cddbd v1.5.2PL0 Copyright (c) Steve Scherf et al.
# Submitted via: ExactAudioCopy v0.95a4
#
DISCID=8c0ba70b
DTITLE=61 South - 61 South
DYEAR=2008
DGENRE=Blues
TTITLE0=Let's Work Together
TTITLE1=Further on up the Road
TTITLE2=Kiss the Blues Goodbye
TTITLE3=12 Gates to the City
TTITLE4=Everybody Wants to Go to heaven
TTITLE5=Mean Old World
TTITLE6=You Got to Move
TTITLE7=Shake Your Hips
TTITLE8=Made It So
TTITLE9=Blues Have Got to Go
TTITLE10=Bluesman for Life
EXTD=
EXTT0=
EXTT1=
EXTT2=
EXTT3=
EXTT4=
EXTT5=
EXTT6=
EXTT7=
EXTT8=
EXTT9=
EXTT10=
PLAYORDER=
